<?xml version="1.0" standalone="no"?>
<!DOCTYPE svg PUBLIC "-//W3C//DTD SVG 20010904//EN"
 "http://www.w3.org/TR/2001/REC-SVG-20010904/DTD/svg10.dtd">
<svg version="1.0" xmlns="http://www.w3.org/2000/svg"
 width="910.000000pt" height="1280.000000pt" viewBox="0 0 910.000000 1280.000000"
 preserveAspectRatio="xMidYMid meet">
<metadata>
Created by potrace 1.15, written by Peter Selinger 2001-2017
</metadata>
<g transform="translate(0.000000,1280.000000) scale(0.100000,-0.100000)"
fill="#22C55F" stroke="none">
<path d="M2845 12759 c-844 -50 -1435 -250 -1914 -647 -296 -246 -542 -591
-705 -989 -133 -323 -179 -558 -180 -913 -1 -221 6 -292 45 -450 31 -125 63
-199 155 -356 598 -1022 980 -2000 1129 -2886 53 -317 66 -473 72 -840 6 -368
-2 -545 -38 -833 -75 -598 -200 -1107 -526 -2135 -122 -387 -138 -475 -138
-760 1 -246 17 -354 84 -559 88 -265 211 -468 411 -675 438 -453 1072 -685
1945 -712 633 -20 1162 68 1725 286 1062 411 2113 1247 2892 2300 546 739 940
1565 1138 2385 158 657 197 1280 120 1940 -177 1523 -645 2819 -1366 3780
-834 1112 -2011 1789 -3476 1999 -440 63 -977 89 -1373 65z"/>
</g>
</svg>
